<?xml version="1.0" standalone="no"?>
<!DOCTYPE svg PUBLIC "-//W3C//DTD SVG 20010904//EN"
 "http://www.w3.org/TR/2001/REC-SVG-20010904/DTD/svg10.dtd">
<svg version="1.0" xmlns="http://www.w3.org/2000/svg"
 width="416.000000pt" height="416.000000pt" viewBox="0 0 416.000000 416.000000"
 preserveAspectRatio="xMidYMid meet">
<metadata>
Created by potrace 1.11, written by Peter Selinger 2001-2013
</metadata>
<g transform="translate(0.000000,416.000000) scale(0.100000,-0.100000)"
fill="#000000" stroke="none">
<path d="M941 3428 c0 -39 3 -48 9 -33 5 11 9 -240 9 -590 1 -489 4 -623 16
-678 35 -164 155 -313 318 -391 158 -77 150 -76 967 -76 l720 0 0 49 c0 27 5
51 11 53 15 5 13 1182 -2 1246 -49 200 -207 360 -439 443 l-65 24 -772 3 -773
3 1 -53z m1519 18 c200 -37 369 -154 454 -316 64 -121 66 -142 65 -660 0 -256
-4 -474 -9 -485 -9 -20 -15 -7 -11 23 2 16 -16 16 -22 0 -3 -7 -6 196 -7 452
-1 256 -5 478 -9 495 -3 16 -5 -258 -3 -608 l3 -637 -690 0 c-776 0 -774 0
-919 72 -149 73 -256 206 -287 355 -12 55 -15 185 -15 666 l0 597 693 2 692 3
-578 5 c-377 3 -576 8 -575 15 2 6 -13 12 -32 15 -69 9 182 16 675 18 384 1
517 -2 575 -12z"/>
<path d="M2413 3393 c9 -2 25 -2 35 0 9 3 1 5 -18 5 -19 0 -27 -2 -17 -5z"/>
<path d="M2561 3357 c131 -55 241 -145 290 -240 11 -22 23 -36 26 -33 11 10
-59 106 -118 160 -56 52 -203 136 -238 136 -9 0 9 -11 40 -23z"/>
<path d="M2882 3065 c0 -5 6 -26 13 -45 7 -19 14 -28 14 -20 0 8 -6 29 -14 45
-7 17 -13 26 -13 20z"/>
<path d="M783 2240 c0 -47 2 -66 4 -42 2 23 2 61 0 85 -2 23 -4 4 -4 -43z"/>
<path d="M792 2120 c0 -14 2 -19 5 -12 2 6 2 18 0 25 -3 6 -5 1 -5 -13z"/>
<path d="M800 2078 c0 -20 51 -161 56 -155 2 2 -10 41 -26 88 -16 46 -30 76
-30 67z"/>
<path d="M866 1898 c92 -153 201 -256 351 -331 28 -15 91 -39 140 -54 87 -26
92 -27 483 -33 320 -5 410 -10 474 -24 310 -68 552 -275 720 -614 41 -83 94
-217 114 -292 7 -24 10 168 9 585 -1 566 -7 587 -16 50 -2 -84 -5 -114 -12
-100 -7 15 -8 9 -5 -25 2 -25 2 -39 -1 -32 -3 6 -13 12 -24 12 -15 0 -18 7
-16 36 1 20 -3 39 -9 41 -7 2 -11 -22 -12 -73 0 -60 -4 -79 -16 -86 -13 -7
-14 -14 -6 -29 7 -13 8 -25 1 -37 -6 -9 -11 -12 -12 -7 -5 31 -9 53 -15 79 -5
20 -3 27 4 22 11 -7 28 31 18 41 -3 4 -17 8 -31 9 -22 2 -23 1 -10 -12 17 -17
20 -34 6 -34 -5 0 -7 -10 -5 -22 2 -13 1 -16 -2 -8 -4 8 -13 23 -22 33 -8 9
-10 17 -4 17 6 0 13 -6 15 -12 3 -8 6 -7 6 4 1 9 -8 19 -18 23 -36 11 -44 31
-25 62 10 15 14 25 9 21 -4 -4 -14 -3 -22 3 -8 8 -13 8 -13 1 0 -6 -6 -9 -12
-8 -24 3 -39 18 -34 33 3 8 2 11 -3 8 -5 -3 -12 -1 -15 4 -4 5 -2 12 4 16 5 3
10 12 10 18 0 7 -5 4 -11 -6 -6 -9 -15 -15 -20 -11 -6 3 -5 12 3 22 11 15 11
15 -2 5 -12 -9 -21 -6 -48 18 -18 16 -29 29 -26 29 12 0 -67 59 -123 93 -89
53 -155 85 -208 102 -134 44 -161 47 -565 54 -326 6 -408 10 -470 25 -77 18
-252 98 -305 138 -41 31 -161 151 -165 163 -4 14 -60 95 -66 95 -3 0 -2 -6 2
-12z m2054 -810 c0 6 4 12 10 12 5 0 7 -7 3 -15 -7 -19 -25 -15 -31 6 -3 11
-2 11 7 -1 7 -10 11 -11 11 -2z m107 -80 c-3 -8 -6 -5 -6 6 -1 11 2 17 5 13 3
-3 4 -12 1 -19z m89 -260 c0 -10 -1 -18 -3 -18 -1 0 -7 8 -12 18 -7 13 -6 19
2 19 7 0 13 -9 13 -19z"/>
<path d="M3108 1155 c-2 -27 1 -44 7 -42 13 5 19 87 7 87 -6 0 -12 -20 -14
-45z"/>
<path d="M3030 1070 c0 -19 3 -21 12 -12 9 9 9 15 0 24 -9 9 -12 7 -12 -12z"/>
<path d="M3020 959 c0 -5 5 -7 10 -4 6 3 10 8 10 11 0 2 -4 4 -10 4 -5 0 -10
-5 -10 -11z"/>
</g>
</svg>
